<svg width="182" height="206" viewBox="0 0 182 206" fill="none" xmlns="http://www.w3.org/2000/svg">
<path d="M2 162.688V41.6881L90.7493 2.18811L180 41.6881V162.688L90.7493 203.188L2 162.688Z" stroke="white" stroke-width="4"/>
<path d="M22.0569 44.1881L90.2485 14.1881L159.944 44.1881L90.2485 74.6881L22.0569 44.1881Z" stroke="white" stroke-width="4"/>
<path d="M11.5273 78.1881V51.6881L90.2485 85.6881L170.474 50.1881L170.152 67.1881L153.927 76.1881V91.6881L146.406 96.1881L138.885 100.688V73.6881L126.851 79.6881V104.188L112.31 112.188V102.688V95.1881L103.285 99.1881L97 101.93V186.43L91 189.188L85.0673 186.688V100.688L75.7076 96.6881L69.1893 93.6881V102.688V110.188L51.1386 103.188V85.6881V77.1881L35.0935 70.6881V95.6881L23 90.955V82.955L11.5273 78.1881Z" stroke="white" stroke-width="4"/>
</svg>
